<svg width="16" height="16" viewBox="0 0 16 16" fill="none" xmlns="http://www.w3.org/2000/svg">
<path d="M12.5938 2.9375H12.0312V2H11.0938V2.9375H4.90625V2H3.96875V2.9375H3.40625C2.63084 2.9375 2 3.56834 2 4.34375V12.5938C2 13.3692 2.63084 14 3.40625 14H12.5938C13.3692 14 14 13.3692 14 12.5938V4.34375C14 3.56834 13.3692 2.9375 12.5938 2.9375ZM13.0625 12.5938C13.0625 12.8522 12.8522 13.0625 12.5938 13.0625H3.40625C3.14778 13.0625 2.9375 12.8522 2.9375 12.5938V6.40625H13.0625V12.5938ZM13.0625 5.46875H2.9375V4.34375C2.9375 4.08528 3.14778 3.875 3.40625 3.875H3.96875V4.8125H4.90625V3.875H11.0938V4.8125H12.0312V3.875H12.5938C12.8522 3.875 13.0625 4.08528 13.0625 4.34375V5.46875Z" fill="#606060"/>
<path d="M4.71875 7.39062H3.78125V8.32812H4.71875V7.39062Z" fill="#606060"/>
<path d="M6.59375 7.39062H5.65625V8.32812H6.59375V7.39062Z" fill="#606060"/>
<path d="M8.46875 7.39062H7.53125V8.32812H8.46875V7.39062Z" fill="#606060"/>
<path d="M10.3438 7.39062H9.40625V8.32812H10.3438V7.39062Z" fill="#606060"/>
<path d="M12.2188 7.39062H11.2812V8.32812H12.2188V7.39062Z" fill="#606060"/>
<path d="M4.71875 9.26562H3.78125V10.2031H4.71875V9.26562Z" fill="#606060"/>
<path d="M6.59375 9.26562H5.65625V10.2031H6.59375V9.26562Z" fill="#606060"/>
<path d="M8.46875 9.26562H7.53125V10.2031H8.46875V9.26562Z" fill="#606060"/>
<path d="M10.3438 9.26562H9.40625V10.2031H10.3438V9.26562Z" fill="#606060"/>
<path d="M4.71875 11.1406H3.78125V12.0781H4.71875V11.1406Z" fill="#606060"/>
<path d="M6.59375 11.1406H5.65625V12.0781H6.59375V11.1406Z" fill="#606060"/>
<path d="M8.46875 11.1406H7.53125V12.0781H8.46875V11.1406Z" fill="#606060"/>
<path d="M10.3438 11.1406H9.40625V12.0781H10.3438V11.1406Z" fill="#606060"/>
<path d="M12.2188 9.26562H11.2812V10.2031H12.2188V9.26562Z" fill="#606060"/>
</svg>
